<?xml version="1.0" encoding="UTF-8" standalone="no"?>
<svg id="svg2" xmlns:rdf="http://www.w3.org/1999/02/22-rdf-syntax-ns#" xmlns="http://www.w3.org/2000/svg" height="660" width="600" version="1.0" xmlns:cc="http://creativecommons.org/ns#" xmlns:xlink="http://www.w3.org/1999/xlink" xmlns:dc="http://purl.org/dc/elements/1.1/">
 <metadata id="metadata49">
  <rdf:RDF>
   <cc:Work rdf:about="">
    <dc:format>image/svg+xml</dc:format>
    <dc:type rdf:resource="http://purl.org/dc/dcmitype/StillImage"/>
    <dc:title>Blason de la Lorraine</dc:title>
    <dc:date>27-11-2006</dc:date>
    <dc:creator>
     <cc:Agent>
      <dc:title>Fabrice Antoine (darkbob)</dc:title>
     </cc:Agent>
    </dc:creator>
    <cc:license rdf:resource="http://web.resource.org/cc/PublicDomain"/>
    <dc:language>fr</dc:language>
    <dc:subject>
     <rdf:Bag>
      <rdf:li>blason lorraine</rdf:li>
     </rdf:Bag>
    </dc:subject>
   </cc:Work>
   <cc:License rdf:about="http://web.resource.org/cc/PublicDomain">
    <cc:permits rdf:resource="http://web.resource.org/cc/Reproduction"/>
    <cc:permits rdf:resource="http://web.resource.org/cc/Distribution"/>
    <cc:permits rdf:resource="http://web.resource.org/cc/DerivativeWorks"/>
   </cc:License>
  </rdf:RDF>
 </metadata>
 <desc id="desc4">Flag of Canton of Valais (Wallis)</desc>
 <defs id="defs6">
  <radialGradient id="radialGradient3163" gradientUnits="userSpaceOnUse" cy="226.33" cx="221.44" gradientTransform="matrix(1.3532 0 0 1.3489 -77.629 -85.747)" r="300">
   <stop id="stop2895" stop-color="#fff" stop-opacity=".31373" offset="0"/>
   <stop id="stop2897" stop-color="#fff" stop-opacity=".25098" offset=".19"/>
   <stop id="stop2901" stop-color="#6b6b6b" stop-opacity=".12549" offset="0.6"/>
   <stop id="stop2899" stop-opacity=".12549" offset="1"/>
  </radialGradient>
 </defs>
 <g id="layer3">
  <path id="path2855" d="m300 658.5s298.5-112.32 298.5-397.77v-258.55l-597-0.0035v258.55c0 285.45 298.5 397.77 298.5 397.77z" fill-rule="evenodd" fill="#fcef3c"/>
 </g>
 <g id="layer4">
  <g id="g2571" transform="translate(-.14826 -.32833)">
   <g id="g5810">
    <path id="path2574" d="m1.5 100.78l457.38 457.38c31.34-28.14 62.03-62.67 86.68-104.13l-451.84-451.84-92.22-0.0025v98.592z" fill-rule="evenodd" stroke="#000" stroke-miterlimit="3.2" stroke-width="2" fill="#e20909"/>
    <rect id="rect4923" height="660" width="600" y="3.3751e-14" x="0" fill="none"/>
   </g>
  </g>
  <g id="g2693" transform="matrix(.13288 -.13288 .13288 .13288 34.168 118.56)" stroke="#000" stroke-width="7.9823">
   <g id="g2667" fill-rule="evenodd" stroke="#000" stroke-width="7.9823">
    <g id="g14906" fill="#fff">
     <g id="g14878">
      <path id="path14673" d="m64.753 130.2c-30.569 18.18-18.842 136.54-66.379 198.15-6.5918 8.94-20.311 20.34-1.8867 13.52 60.733-22.26 110.16-156.41 103.39-222.02-5.26 0-14.908-0.36-20.221 0.01-8.797 3.44-6.105 6.89-14.903 10.34z"/>
      <path id="path14675" d="m76.119 164.73c-7.352 12.73-7.879 33.02-8.159 47.92-0.904 48.05-4.61 97.35-55.149 148.13-11.749 11.89-9.7854 15.11 3.797 10.94 81.06-27.27 79.942-129.28 105.83-186.34-1.95-12.19-0.83-24.02-8.72-31.72-5.23 0.57-10.46 0.54-15.696 1.49-8.369 4.38-13.536 5.2-21.905 9.58z"/>
      <path id="path14671" d="m91.595 194.58c-3.159 22.15 0.525 39.56 0.894 57.79 0.944 46.49-7.925 92.41-45.346 140.23-10.372 12.47-8.206 15.42 4.579 10.26 73.848-32.85 81.048-136.34 90.798-193.63-2.9-11.62-8.03-22.7-16.3-29.49-5.01 0.99-10.06 1.39-15.05 2.74-7.73 4.94-11.847 7.16-19.575 12.1z"/>
      <path id="path14677" d="m115.9 234.22c10.98 65.47 8.65 122.45-36.955 188.82-9.779 12.39-7.597 15.21 4.715 9.87 72.87-23.87 73.06-132.44 81.1-188.44-3.12-11.23-3.88-21.89-12.1-28.29-4.85 1.09-9.75 1.61-14.57 3.05-7.4 5-14.8 9.99-22.19 14.99z"/>
      <path id="path14679" d="m145.38 260.45c15.02 55.58 13.14 101.07-10.53 162.67-7.3 13.99-4.64 16.36 6.47 8.82 41.41-28.89 53.11-118.47 47.61-172.4-3.97-15.13-9.33-17.62-23.43-23.66-4.56 1.98-9.29 3.4-13.76 5.71-5.49 7.96-8.91 6.52-6.36 18.86z"/>
      <path id="path14681" d="m177.88 259.73c8.6 25.74 6.6 52.31 6.52 81.05-0.05 21.31 0.03 43.8-4.9 68.04-5.81 22.33 5.08 18.52 9.79 8.44 30.11-43.94 31.46-95.72 26.35-151-0.33-7.85 4.72-17.09-18.13-31.57-17.74 4.67-24.93 9.1-19.63 25.04z"/>
      <path id="path12997" d="m207.92 258.69c10.73 21.2 9.55 42.77 12.29 70.28 2.11 21.21-0.94 46.28-3.38 70.9-3.52 22.81 4.21 16.51 10.59 7.4 39.85-66.35 6.11-104.47 14.67-158.7-4.39-9.94-7.92-23.27-29.17-7.13l-5 17.25z"/>
      <path id="path3971" d="m289.72 190.31c-27.5 52.04-99.65 28.87-111.94-25.44-17.96-79.347-58.48-77.644-84.072-67.718-21.95 8.518-37.906 23.428-41.978 49.228 13.746 9.09 18.711 2.34 28.213-2-7.585 8.55-15.145 11.38-15.349 35.77 28.438 6.72 20.689 4.39 30.648-0.63-8.171 7.53-11.044 11.61-7.984 35.52 21.112 0.37 27.312-3.61 31.932-8.23-8.23 11.84-8.99 25.51-5.76 37.46 16.71-1.37 25.44-4.8 33.18-14.75-4.88 11.51-5.19 24.3 0.25 39.49 13.85-1.98 24.49-6.58 29.48-19.74-0.98 17.24 0.96 28.62 8.71 36.91 10.02-4.4 21.71-11.5 24.53-21.34-1.09 13.17 11.09 25.81 18.65 29.15 9.76-5.92 20.85-14.74 23.87-28 20.71-22.69 15.82-22.66 55.8-14.53-3.34-18-9.91-46.14-18.18-61.15z"/>
     </g>
     <g id="g14888" transform="matrix(-1 0 0 1 612.97 0)">
      <path id="path14890" d="m64.753 130.2c-30.569 18.18-18.842 136.54-66.379 198.15-6.5918 8.94-20.311 20.34-1.8867 13.52 65.839-19.71 110.16-156.41 103.39-222.02-5.26 0-14.908-0.36-20.221 0.01-8.797 3.44-6.105 6.89-14.903 10.34z"/>
      <path id="path14892" d="m76.119 164.73c-7.352 12.73-7.879 33.02-8.159 47.92-0.904 48.05-4.61 97.35-55.149 148.13-11.749 11.89-9.7854 15.11 3.797 10.94 81.06-27.27 79.942-129.28 105.83-186.34-1.95-12.19-0.83-24.02-8.72-31.72-5.23 0.57-10.46 0.54-15.696 1.49-8.369 4.38-13.536 5.2-21.905 9.58z"/>
      <path id="path14894" d="m91.595 194.58c-3.159 22.15 0.525 39.56 0.894 57.79 0.944 46.49-7.925 92.41-45.346 140.23-10.372 12.47-8.206 15.42 4.579 10.26 73.848-32.85 81.048-136.34 90.798-193.63-2.9-11.62-8.03-22.7-16.3-29.49-5.01 0.99-10.06 1.39-15.05 2.74-7.73 4.94-11.847 7.16-19.575 12.1z"/>
      <path id="path14896" d="m115.9 234.22c10.98 65.47 8.65 122.45-36.955 188.82-9.779 12.39-7.597 15.21 4.715 9.87 74.15-28.98 73.06-132.44 81.1-188.44-3.12-11.23-3.88-21.89-12.1-28.29-4.85 1.09-9.75 1.61-14.57 3.05-7.4 5-14.8 9.99-22.19 14.99z"/>
      <path id="path14898" d="m145.38 260.45c15.02 55.58 13.14 101.07-10.53 162.67-7.3 13.99-4.64 16.36 6.47 8.82 38.86-37.82 53.11-118.47 47.61-172.4-3.97-15.13-9.33-17.62-23.43-23.66-4.56 1.98-9.29 3.4-13.76 5.71-5.49 7.96-8.91 6.52-6.36 18.86z"/>
      <path id="path14900" d="m177.88 259.73c8.6 25.74 6.6 52.31 6.52 81.05-0.05 21.31 0.03 43.8-4.9 68.04-5.81 22.33 5.08 18.52 9.79 8.44 30.11-43.94 31.46-95.72 26.35-151-0.33-7.85 4.72-17.09-18.13-31.57-17.74 4.67-24.93 9.1-19.63 25.04z"/>
      <path id="path14902" d="m207.92 258.69c10.73 21.2 9.55 42.77 12.29 70.28 2.11 21.21-0.94 46.28-3.38 70.9-3.52 22.81 4.21 16.51 10.59 7.4 39.85-66.35 6.11-104.47 14.67-158.7-4.39-9.94-7.92-23.27-29.17-7.13l-5 17.25z"/>
      <path id="path14904" d="m289.72 190.31c-27.5 52.04-99.65 28.87-111.94-25.44-17.96-79.347-58.48-77.644-84.072-67.718-21.95 8.518-37.906 23.428-41.978 49.228 13.746 9.09 18.711 2.34 28.213-2-7.585 8.55-15.145 11.38-15.349 35.77 28.438 6.72 20.689 4.39 30.648-0.63-8.171 7.53-11.044 11.61-7.984 35.52 21.112 0.37 27.312-3.61 31.932-8.23-8.23 11.84-8.99 25.51-5.76 37.46 16.71-1.37 25.44-4.8 33.18-14.75-4.88 11.51-5.19 24.3 0.25 39.49 13.85-1.98 24.49-6.58 29.48-19.74-0.98 17.24 0.96 28.62 8.71 36.91 10.02-4.4 21.71-11.5 24.53-21.34-1.09 13.17 11.09 25.81 18.65 29.15 9.76-5.92 20.85-14.74 23.87-28 20.71-22.69 15.82-22.66 55.8-14.53-3.34-18-9.91-46.14-18.18-61.15z"/>
     </g>
    </g>
    <g id="g14791" transform="translate(2.4545)">
     <path id="path13584" d="m304.03 64.691c26.1-0.01 53.18 19.427 48.94 54.499-4.47 36.87-36.09 51.27 2.8 65.59l-20.72 3.63c5.56 6.95 16.07 18.82 27.87 23.84l-24.63-1.86c40.72 49.29 13.53 110.22-0.69 167.78 5.37 57.14 68.87 60.61 104.45 68.8-20.94 5.81-33.98 5.62-2.47 28.57-28.07-0.16-28.04 2.75-12.86 30.25-10.15-4.51-35.65-33.53-20.99 5.3-32.31-28.56-80.4-55.22-81.54-97.66 0 0-20.23 28.84-2.88 47.39 13.34 20.35 33.14 19.01 44.02 43.71-54.6-21.84-44.79-5.58-9.03 12.25-13.35 4.9-34.19 5.68-34.99 13.36 23.8 12.76 49.7 15.26 86.57 2.33-4.44 24.37-45.4 29.58-68.55 28.33 13.18 5.14 24.98 13.6 31.13 28.33-18.99 3.6-37.47-0.78-49.15-14.6 6.28 21.84 5.85 36.87-0.24 49.21-3.68 7.46-11.61 14.93-17.04 25.24-5.43-10.31-13.36-17.78-17.04-25.24-6.09-12.34-6.52-27.37-0.24-49.21-11.68 13.82-30.16 18.2-49.15 14.6 6.15-14.73 17.95-23.19 31.13-28.33-23.15 1.25-64.11-3.96-68.55-28.33 36.87 12.93 62.77 10.43 86.57-2.33-0.81-7.68-21.64-8.46-34.99-13.36 35.76-17.83 45.57-34.09-9.03-12.25 10.88-24.7 30.68-23.36 44.02-43.71 17.35-18.55-2.88-47.39-2.88-47.39-1.14 42.44-49.23 69.1-81.54 97.66 14.66-38.83-10.84-9.81-20.99-5.3 15.18-27.5 15.21-30.41-12.86-30.25 31.5-22.95 18.47-22.76-2.47-28.57 35.58-8.19 99.08-11.66 104.45-68.8-14.22-57.56-41.41-118.49-0.69-167.78l-24.63 1.86c11.8-5.02 22.31-16.89 27.86-23.84l-20.71-3.63c38.89-14.32 7.27-28.72 2.8-65.59-4.24-35.072 22.84-54.509 48.94-54.499z" fill="#fff"/>
     <g id="g14787">
      <path id="path3979" d="m282.64 91.79c5.48 0.586 7.78-0.601 12.43 3.717 8.4 9.203 14.09 15.793 20.01 19.193 3.74 2.14 6.61 3.7 9.52 5.42-1.22-0.66-6.9-4.09-9.64-5.37-4.77-0.65-15.6 8.01-22.36 4.48-10.9-5.69-14.84-17.38 2.15-23.571-0.2-1.455-5.16-3.743-12.11-3.869z" fill="#fff"/>
      <path id="path3981" stroke-linejoin="round" d="m293.66 113.09c-3.77-1.5-5.44-5.4-3.72-8.71 1.71-3.3 6.73-5.758 9.92-3.26 3.06 2.39 5.39 5.46 3.72 8.7-1.66 3.23-5.92 4.71-9.66 3.37" stroke-linecap="round"/>
     </g>
    </g>
   </g>
  </g>
  <g id="g2800" transform="matrix(.13288 -.13288 .13288 .13288 190.33 274.72)" stroke="#000" stroke-width="7.9823">
   <g id="g2802" fill-rule="evenodd" stroke="#000" stroke-width="7.9823">
    <g id="g2804" fill="#fff">
     <g id="g2806">
      <path id="path2808" d="m64.753 130.2c-30.569 18.18-18.842 136.54-66.379 198.15-6.5918 8.94-20.311 20.34-1.8867 13.52 60.733-22.26 110.16-156.41 103.39-222.02-5.26 0-14.908-0.36-20.221 0.01-8.797 3.44-6.105 6.89-14.903 10.34z"/>
      <path id="path2810" d="m76.119 164.73c-7.352 12.73-7.879 33.02-8.159 47.92-0.904 48.05-4.61 97.35-55.149 148.13-11.749 11.89-9.7854 15.11 3.797 10.94 81.06-27.27 79.942-129.28 105.83-186.34-1.95-12.19-0.83-24.02-8.72-31.72-5.23 0.57-10.46 0.54-15.696 1.49-8.369 4.38-13.536 5.2-21.905 9.58z"/>
      <path id="path2812" d="m91.595 194.58c-3.159 22.15 0.525 39.56 0.894 57.79 0.944 46.49-7.925 92.41-45.346 140.23-10.372 12.47-8.206 15.42 4.579 10.26 73.848-32.85 81.048-136.34 90.798-193.63-2.9-11.62-8.03-22.7-16.3-29.49-5.01 0.99-10.06 1.39-15.05 2.74-7.73 4.94-11.847 7.16-19.575 12.1z"/>
      <path id="path2814" d="m115.9 234.22c10.98 65.47 8.65 122.45-36.955 188.82-9.779 12.39-7.597 15.21 4.715 9.87 72.87-23.87 73.06-132.44 81.1-188.44-3.12-11.23-3.88-21.89-12.1-28.29-4.85 1.09-9.75 1.61-14.57 3.05-7.4 5-14.8 9.99-22.19 14.99z"/>
      <path id="path2816" d="m145.38 260.45c15.02 55.58 13.14 101.07-10.53 162.67-7.3 13.99-4.64 16.36 6.47 8.82 41.41-28.89 53.11-118.47 47.61-172.4-3.97-15.13-9.33-17.62-23.43-23.66-4.56 1.98-9.29 3.4-13.76 5.71-5.49 7.96-8.91 6.52-6.36 18.86z"/>
      <path id="path2818" d="m177.88 259.73c8.6 25.74 6.6 52.31 6.52 81.05-0.05 21.31 0.03 43.8-4.9 68.04-5.81 22.33 5.08 18.52 9.79 8.44 30.11-43.94 31.46-95.72 26.35-151-0.33-7.85 4.72-17.09-18.13-31.57-17.74 4.67-24.93 9.1-19.63 25.04z"/>
      <path id="path2820" d="m207.92 258.69c10.73 21.2 9.55 42.77 12.29 70.28 2.11 21.21-0.94 46.28-3.38 70.9-3.52 22.81 4.21 16.51 10.59 7.4 39.85-66.35 6.11-104.47 14.67-158.7-4.39-9.94-7.92-23.27-29.17-7.13l-5 17.25z"/>
      <path id="path2822" d="m289.72 190.31c-27.5 52.04-99.65 28.87-111.94-25.44-17.96-79.347-58.48-77.644-84.072-67.718-21.95 8.518-37.906 23.428-41.978 49.228 13.746 9.09 18.711 2.34 28.213-2-7.585 8.55-15.145 11.38-15.349 35.77 28.438 6.72 20.689 4.39 30.648-0.63-8.171 7.53-11.044 11.61-7.984 35.52 21.112 0.37 27.312-3.61 31.932-8.23-8.23 11.84-8.99 25.51-5.76 37.46 16.71-1.37 25.44-4.8 33.18-14.75-4.88 11.51-5.19 24.3 0.25 39.49 13.85-1.98 24.49-6.58 29.48-19.74-0.98 17.24 0.96 28.62 8.71 36.91 10.02-4.4 21.71-11.5 24.53-21.34-1.09 13.17 11.09 25.81 18.65 29.15 9.76-5.92 20.85-14.74 23.87-28 20.71-22.69 15.82-22.66 55.8-14.53-3.34-18-9.91-46.14-18.18-61.15z"/>
     </g>
     <g id="g2824" transform="matrix(-1 0 0 1 612.97 0)">
      <path id="path2826" d="m64.753 130.2c-30.569 18.18-18.842 136.54-66.379 198.15-6.5918 8.94-20.311 20.34-1.8867 13.52 65.839-19.71 110.16-156.41 103.39-222.02-5.26 0-14.908-0.36-20.221 0.01-8.797 3.44-6.105 6.89-14.903 10.34z"/>
      <path id="path2828" d="m76.119 164.73c-7.352 12.73-7.879 33.02-8.159 47.92-0.904 48.05-4.61 97.35-55.149 148.13-11.749 11.89-9.7854 15.11 3.797 10.94 81.06-27.27 79.942-129.28 105.83-186.34-1.95-12.19-0.83-24.02-8.72-31.72-5.23 0.57-10.46 0.54-15.696 1.49-8.369 4.38-13.536 5.2-21.905 9.58z"/>
      <path id="path2830" d="m91.595 194.58c-3.159 22.15 0.525 39.56 0.894 57.79 0.944 46.49-7.925 92.41-45.346 140.23-10.372 12.47-8.206 15.42 4.579 10.26 73.848-32.85 81.048-136.34 90.798-193.63-2.9-11.62-8.03-22.7-16.3-29.49-5.01 0.99-10.06 1.39-15.05 2.74-7.73 4.94-11.847 7.16-19.575 12.1z"/>
      <path id="path2832" d="m115.9 234.22c10.98 65.47 8.65 122.45-36.955 188.82-9.779 12.39-7.597 15.21 4.715 9.87 74.15-28.98 73.06-132.44 81.1-188.44-3.12-11.23-3.88-21.89-12.1-28.29-4.85 1.09-9.75 1.61-14.57 3.05-7.4 5-14.8 9.99-22.19 14.99z"/>
      <path id="path2834" d="m145.38 260.45c15.02 55.58 13.14 101.07-10.53 162.67-7.3 13.99-4.64 16.36 6.47 8.82 38.86-37.82 53.11-118.47 47.61-172.4-3.97-15.13-9.33-17.62-23.43-23.66-4.56 1.98-9.29 3.4-13.76 5.71-5.49 7.96-8.91 6.52-6.36 18.86z"/>
      <path id="path2836" d="m177.88 259.73c8.6 25.74 6.6 52.31 6.52 81.05-0.05 21.31 0.03 43.8-4.9 68.04-5.81 22.33 5.08 18.52 9.79 8.44 30.11-43.94 31.46-95.72 26.35-151-0.33-7.85 4.72-17.09-18.13-31.57-17.74 4.67-24.93 9.1-19.63 25.04z"/>
      <path id="path2838" d="m207.92 258.69c10.73 21.2 9.55 42.77 12.29 70.28 2.11 21.21-0.94 46.28-3.38 70.9-3.52 22.81 4.21 16.51 10.59 7.4 39.85-66.35 6.11-104.47 14.67-158.7-4.39-9.94-7.92-23.27-29.17-7.13l-5 17.25z"/>
      <path id="path2840" d="m289.72 190.31c-27.5 52.04-99.65 28.87-111.94-25.44-17.96-79.347-58.48-77.644-84.072-67.718-21.95 8.518-37.906 23.428-41.978 49.228 13.746 9.09 18.711 2.34 28.213-2-7.585 8.55-15.145 11.38-15.349 35.77 28.438 6.72 20.689 4.39 30.648-0.63-8.171 7.53-11.044 11.61-7.984 35.52 21.112 0.37 27.312-3.61 31.932-8.23-8.23 11.84-8.99 25.51-5.76 37.46 16.71-1.37 25.44-4.8 33.18-14.75-4.88 11.51-5.19 24.3 0.25 39.49 13.85-1.98 24.49-6.58 29.48-19.74-0.98 17.24 0.96 28.62 8.71 36.91 10.02-4.4 21.71-11.5 24.53-21.34-1.09 13.17 11.09 25.81 18.65 29.15 9.76-5.92 20.85-14.74 23.87-28 20.71-22.69 15.82-22.66 55.8-14.53-3.34-18-9.91-46.14-18.18-61.15z"/>
     </g>
    </g>
    <g id="g2842" transform="translate(2.4545)">
     <path id="path2844" d="m304.03 64.691c26.1-0.01 53.18 19.427 48.94 54.499-4.47 36.87-36.09 51.27 2.8 65.59l-20.72 3.63c5.56 6.95 16.07 18.82 27.87 23.84l-24.63-1.86c40.72 49.29 13.53 110.22-0.69 167.78 5.37 57.14 68.87 60.61 104.45 68.8-20.94 5.81-33.98 5.62-2.47 28.57-28.07-0.16-28.04 2.75-12.86 30.25-10.15-4.51-35.65-33.53-20.99 5.3-32.31-28.56-80.4-55.22-81.54-97.66 0 0-20.23 28.84-2.88 47.39 13.34 20.35 33.14 19.01 44.02 43.71-54.6-21.84-44.79-5.58-9.03 12.25-13.35 4.9-34.19 5.68-34.99 13.36 23.8 12.76 49.7 15.26 86.57 2.33-4.44 24.37-45.4 29.58-68.55 28.33 13.18 5.14 24.98 13.6 31.13 28.33-18.99 3.6-37.47-0.78-49.15-14.6 6.28 21.84 5.85 36.87-0.24 49.21-3.68 7.46-11.61 14.93-17.04 25.24-5.43-10.31-13.36-17.78-17.04-25.24-6.09-12.34-6.52-27.37-0.24-49.21-11.68 13.82-30.16 18.2-49.15 14.6 6.15-14.73 17.95-23.19 31.13-28.33-23.15 1.25-64.11-3.96-68.55-28.33 36.87 12.93 62.77 10.43 86.57-2.33-0.81-7.68-21.64-8.46-34.99-13.36 35.76-17.83 45.57-34.09-9.03-12.25 10.88-24.7 30.68-23.36 44.02-43.71 17.35-18.55-2.88-47.39-2.88-47.39-1.14 42.44-49.23 69.1-81.54 97.66 14.66-38.83-10.84-9.81-20.99-5.3 15.18-27.5 15.21-30.41-12.86-30.25 31.5-22.95 18.47-22.76-2.47-28.57 35.58-8.19 99.08-11.66 104.45-68.8-14.22-57.56-41.41-118.49-0.69-167.78l-24.63 1.86c11.8-5.02 22.31-16.89 27.86-23.84l-20.71-3.63c38.89-14.32 7.27-28.72 2.8-65.59-4.24-35.072 22.84-54.509 48.94-54.499z" fill="#fff"/>
     <g id="g2846">
      <path id="path2848" d="m282.64 91.79c5.48 0.586 7.78-0.601 12.43 3.717 8.4 9.203 14.09 15.793 20.01 19.193 3.74 2.14 6.61 3.7 9.52 5.42-1.22-0.66-6.9-4.09-9.64-5.37-4.77-0.65-15.6 8.01-22.36 4.48-10.9-5.69-14.84-17.38 2.15-23.571-0.2-1.455-5.16-3.743-12.11-3.869z" fill="#fff"/>
      <path id="path2850" stroke-linejoin="round" d="m293.66 113.09c-3.77-1.5-5.44-5.4-3.72-8.71 1.71-3.3 6.73-5.758 9.92-3.26 3.06 2.39 5.39 5.46 3.72 8.7-1.66 3.23-5.92 4.71-9.66 3.37" stroke-linecap="round"/>
     </g>
    </g>
   </g>
  </g>
  <g id="g2852" transform="matrix(.13288 -.13288 .13288 .13288 344.87 429.27)" stroke="#000" stroke-width="7.9823">
   <g id="g2854" fill-rule="evenodd" stroke="#000" stroke-width="7.9823">
    <g id="g2856" fill="#fff">
     <g id="g2858">
      <path id="path2860" d="m64.753 130.2c-30.569 18.18-18.842 136.54-66.379 198.15-6.5918 8.94-20.311 20.34-1.8867 13.52 60.733-22.26 110.16-156.41 103.39-222.02-5.26 0-14.908-0.36-20.221 0.01-8.797 3.44-6.105 6.89-14.903 10.34z"/>
      <path id="path2862" d="m76.119 164.73c-7.352 12.73-7.879 33.02-8.159 47.92-0.904 48.05-4.61 97.35-55.149 148.13-11.749 11.89-9.7854 15.11 3.797 10.94 81.06-27.27 79.942-129.28 105.83-186.34-1.95-12.19-0.83-24.02-8.72-31.72-5.23 0.57-10.46 0.54-15.696 1.49-8.369 4.38-13.536 5.2-21.905 9.58z"/>
      <path id="path2864" d="m91.595 194.58c-3.159 22.15 0.525 39.56 0.894 57.79 0.944 46.49-7.925 92.41-45.346 140.23-10.372 12.47-8.206 15.42 4.579 10.26 73.848-32.85 81.048-136.34 90.798-193.63-2.9-11.62-8.03-22.7-16.3-29.49-5.01 0.99-10.06 1.39-15.05 2.74-7.73 4.94-11.847 7.16-19.575 12.1z"/>
      <path id="path2866" d="m115.9 234.22c10.98 65.47 8.65 122.45-36.955 188.82-9.779 12.39-7.597 15.21 4.715 9.87 72.87-23.87 73.06-132.44 81.1-188.44-3.12-11.23-3.88-21.89-12.1-28.29-4.85 1.09-9.75 1.61-14.57 3.05-7.4 5-14.8 9.99-22.19 14.99z"/>
      <path id="path2868" d="m145.38 260.45c15.02 55.58 13.14 101.07-10.53 162.67-7.3 13.99-4.64 16.36 6.47 8.82 41.41-28.89 53.11-118.47 47.61-172.4-3.97-15.13-9.33-17.62-23.43-23.66-4.56 1.98-9.29 3.4-13.76 5.71-5.49 7.96-8.91 6.52-6.36 18.86z"/>
      <path id="path2870" d="m177.88 259.73c8.6 25.74 6.6 52.31 6.52 81.05-0.05 21.31 0.03 43.8-4.9 68.04-5.81 22.33 5.08 18.52 9.79 8.44 30.11-43.94 31.46-95.72 26.35-151-0.33-7.85 4.72-17.09-18.13-31.57-17.74 4.67-24.93 9.1-19.63 25.04z"/>
      <path id="path2872" d="m207.92 258.69c10.73 21.2 9.55 42.77 12.29 70.28 2.11 21.21-0.94 46.28-3.38 70.9-3.52 22.81 4.21 16.51 10.59 7.4 39.85-66.35 6.11-104.47 14.67-158.7-4.39-9.94-7.92-23.27-29.17-7.13l-5 17.25z"/>
      <path id="path2874" d="m289.72 190.31c-27.5 52.04-99.65 28.87-111.94-25.44-17.96-79.347-58.48-77.644-84.072-67.718-21.95 8.518-37.906 23.428-41.978 49.228 13.746 9.09 18.711 2.34 28.213-2-7.585 8.55-15.145 11.38-15.349 35.77 28.438 6.72 20.689 4.39 30.648-0.63-8.171 7.53-11.044 11.61-7.984 35.52 21.112 0.37 27.312-3.61 31.932-8.23-8.23 11.84-8.99 25.51-5.76 37.46 16.71-1.37 25.44-4.8 33.18-14.75-4.88 11.51-5.19 24.3 0.25 39.49 13.85-1.98 24.49-6.58 29.48-19.74-0.98 17.24 0.96 28.62 8.71 36.91 10.02-4.4 21.71-11.5 24.53-21.34-1.09 13.17 11.09 25.81 18.65 29.15 9.76-5.92 20.85-14.74 23.87-28 20.71-22.69 15.82-22.66 55.8-14.53-3.34-18-9.91-46.14-18.18-61.15z"/>
     </g>
     <g id="g2876" transform="matrix(-1 0 0 1 612.97 0)">
      <path id="path2878" d="m64.753 130.2c-30.569 18.18-18.842 136.54-66.379 198.15-6.5918 8.94-20.311 20.34-1.8867 13.52 65.839-19.71 110.16-156.41 103.39-222.02-5.26 0-14.908-0.36-20.221 0.01-8.797 3.44-6.105 6.89-14.903 10.34z"/>
      <path id="path2880" d="m76.119 164.73c-7.352 12.73-7.879 33.02-8.159 47.92-0.904 48.05-4.61 97.35-55.149 148.13-11.749 11.89-9.7854 15.11 3.797 10.94 81.06-27.27 79.942-129.28 105.83-186.34-1.95-12.19-0.83-24.02-8.72-31.72-5.23 0.57-10.46 0.54-15.696 1.49-8.369 4.38-13.536 5.2-21.905 9.58z"/>
      <path id="path2882" d="m91.595 194.58c-3.159 22.15 0.525 39.56 0.894 57.79 0.944 46.49-7.925 92.41-45.346 140.23-10.372 12.47-8.206 15.42 4.579 10.26 73.848-32.85 81.048-136.34 90.798-193.63-2.9-11.62-8.03-22.7-16.3-29.49-5.01 0.99-10.06 1.39-15.05 2.74-7.73 4.94-11.847 7.16-19.575 12.1z"/>
      <path id="path2884" d="m115.9 234.22c10.98 65.47 8.65 122.45-36.955 188.82-9.779 12.39-7.597 15.21 4.715 9.87 74.15-28.98 73.06-132.44 81.1-188.44-3.12-11.23-3.88-21.89-12.1-28.29-4.85 1.09-9.75 1.61-14.57 3.05-7.4 5-14.8 9.99-22.19 14.99z"/>
      <path id="path2886" d="m145.38 260.45c15.02 55.58 13.14 101.07-10.53 162.67-7.3 13.99-4.64 16.36 6.47 8.82 38.86-37.82 53.11-118.47 47.61-172.4-3.97-15.13-9.33-17.62-23.43-23.66-4.56 1.98-9.29 3.4-13.76 5.71-5.49 7.96-8.91 6.52-6.36 18.86z"/>
      <path id="path2888" d="m177.88 259.73c8.6 25.74 6.6 52.31 6.52 81.05-0.05 21.31 0.03 43.8-4.9 68.04-5.81 22.33 5.08 18.52 9.79 8.44 30.11-43.94 31.46-95.72 26.35-151-0.33-7.85 4.72-17.09-18.13-31.57-17.74 4.67-24.93 9.1-19.63 25.04z"/>
      <path id="path2890" d="m207.92 258.69c10.73 21.2 9.55 42.77 12.29 70.28 2.11 21.21-0.94 46.28-3.38 70.9-3.52 22.81 4.21 16.51 10.59 7.4 39.85-66.35 6.11-104.47 14.67-158.7-4.39-9.94-7.92-23.27-29.17-7.13l-5 17.25z"/>
      <path id="path2892" d="m289.72 190.31c-27.5 52.04-99.65 28.87-111.94-25.44-17.96-79.347-58.48-77.644-84.072-67.718-21.95 8.518-37.906 23.428-41.978 49.228 13.746 9.09 18.711 2.34 28.213-2-7.585 8.55-15.145 11.38-15.349 35.77 28.438 6.72 20.689 4.39 30.648-0.63-8.171 7.53-11.044 11.61-7.984 35.52 21.112 0.37 27.312-3.61 31.932-8.23-8.23 11.84-8.99 25.51-5.76 37.46 16.71-1.37 25.44-4.8 33.18-14.75-4.88 11.51-5.19 24.3 0.25 39.49 13.85-1.98 24.49-6.58 29.48-19.74-0.98 17.24 0.96 28.62 8.71 36.91 10.02-4.4 21.71-11.5 24.53-21.34-1.09 13.17 11.09 25.81 18.65 29.15 9.76-5.92 20.85-14.74 23.87-28 20.71-22.69 15.82-22.66 55.8-14.53-3.34-18-9.91-46.14-18.18-61.15z"/>
     </g>
    </g>
    <g id="g2894" transform="translate(2.4545)">
     <path id="path2896" d="m304.03 64.691c26.1-0.01 53.18 19.427 48.94 54.499-4.47 36.87-36.09 51.27 2.8 65.59l-20.72 3.63c5.56 6.95 16.07 18.82 27.87 23.84l-24.63-1.86c40.72 49.29 13.53 110.22-0.69 167.78 5.37 57.14 68.87 60.61 104.45 68.8-20.94 5.81-33.98 5.62-2.47 28.57-28.07-0.16-28.04 2.75-12.86 30.25-10.15-4.51-35.65-33.53-20.99 5.3-32.31-28.56-80.4-55.22-81.54-97.66 0 0-20.23 28.84-2.88 47.39 13.34 20.35 33.14 19.01 44.02 43.71-54.6-21.84-44.79-5.58-9.03 12.25-13.35 4.9-34.19 5.68-34.99 13.36 23.8 12.76 49.7 15.26 86.57 2.33-4.44 24.37-45.4 29.58-68.55 28.33 13.18 5.14 24.98 13.6 31.13 28.33-18.99 3.6-37.47-0.78-49.15-14.6 6.28 21.84 5.85 36.87-0.24 49.21-3.68 7.46-11.61 14.93-17.04 25.24-5.43-10.31-13.36-17.78-17.04-25.24-6.09-12.34-6.52-27.37-0.24-49.21-11.68 13.82-30.16 18.2-49.15 14.6 6.15-14.73 17.95-23.19 31.13-28.33-23.15 1.25-64.11-3.96-68.55-28.33 36.87 12.93 62.77 10.43 86.57-2.33-0.81-7.68-21.64-8.46-34.99-13.36 35.76-17.83 45.57-34.09-9.03-12.25 10.88-24.7 30.68-23.36 44.02-43.71 17.35-18.55-2.88-47.39-2.88-47.39-1.14 42.44-49.23 69.1-81.54 97.66 14.66-38.83-10.84-9.81-20.99-5.3 15.18-27.5 15.21-30.41-12.86-30.25 31.5-22.95 18.47-22.76-2.47-28.57 35.58-8.19 99.08-11.66 104.45-68.8-14.22-57.56-41.41-118.49-0.69-167.78l-24.63 1.86c11.8-5.02 22.31-16.89 27.86-23.84l-20.71-3.63c38.89-14.32 7.27-28.72 2.8-65.59-4.24-35.072 22.84-54.509 48.94-54.499z" fill="#fff"/>
     <g id="g2898">
      <path id="path2900" d="m282.64 91.79c5.48 0.586 7.78-0.601 12.43 3.717 8.4 9.203 14.09 15.793 20.01 19.193 3.74 2.14 6.61 3.7 9.52 5.42-1.22-0.66-6.9-4.09-9.64-5.37-4.77-0.65-15.6 8.01-22.36 4.48-10.9-5.69-14.84-17.38 2.15-23.571-0.2-1.455-5.16-3.743-12.11-3.869z" fill="#fff"/>
      <path id="path2902" stroke-linejoin="round" d="m293.66 113.09c-3.77-1.5-5.44-5.4-3.72-8.71 1.71-3.3 6.73-5.758 9.92-3.26 3.06 2.39 5.39 5.46 3.72 8.7-1.66 3.23-5.92 4.71-9.66 3.37" stroke-linecap="round"/>
     </g>
    </g>
   </g>
  </g>
 </g>
 <g id="layer2">
  <path id="path2875" d="m300 658.5s298.5-112.32 298.5-397.77v-258.55l-597-0.0035v258.55c0 285.45 298.5 397.77 298.5 397.77z" fill-rule="evenodd" fill="url(#radialGradient3163)"/>
 </g>
 <g id="layer1">
  <path id="path1411" d="m300 658.5s-298.5-112.32-298.5-397.77v-258.55l597-0.0035v258.55c0 285.45-298.5 397.77-298.5 397.77z" stroke="#000" stroke-width="3" fill="none"/>
 </g>
</svg>
